<?xml version="1.0" encoding="UTF-8" standalone="no"?>
<!-- Generator: Adobe Illustrator 27.3.1, SVG Export Plug-In . SVG Version: 6.00 Build 0)  -->

<svg
   version="1.1"
   x="0px"
   y="0px"
   width="192.5"
   height="163.8"
   viewBox="0 0 192.49999 163.80001"
   xml:space="preserve"
   id="svg343"
   sodipodi:docname="CLAIRE.svg"
   inkscape:version="1.2.1 (9c6d41e410, 2022-07-14)"
   inkscape:export-filename="CLAIRE.png"
   inkscape:export-xdpi="600"
   inkscape:export-ydpi="600"
   xmlns:inkscape="http://www.inkscape.org/namespaces/inkscape"
   xmlns:sodipodi="http://sodipodi.sourceforge.net/DTD/sodipodi-0.dtd"
   xmlns="http://www.w3.org/2000/svg"
   xmlns:svg="http://www.w3.org/2000/svg"><defs
   id="defs347">
	
	
	
	
</defs><sodipodi:namedview
   id="namedview345"
   pagecolor="#3a66fd"
   bordercolor="#666666"
   borderopacity="1.0"
   inkscape:showpageshadow="2"
   inkscape:pageopacity="1"
   inkscape:pagecheckerboard="0"
   inkscape:deskcolor="#d1d1d1"
   showgrid="false"
   inkscape:zoom="2.8710463"
   inkscape:cx="156.56313"
   inkscape:cy="87.598727"
   inkscape:window-width="1536"
   inkscape:window-height="793"
   inkscape:window-x="-8"
   inkscape:window-y="1072"
   inkscape:window-maximized="1"
   inkscape:current-layer="svg343" />
<style
   type="text/css"
   id="style289">
	.st0{display:none;}
	.st1{display:inline;fill:#110E0E;}
	.st2{enable-background:new    ;}
	.st3{fill:#FFFFFF;}
	.st4{fill:none;stroke:#FFFFFF;stroke-miterlimit:10;}
	.st5{fill:#64D7D7;}
	.st6{fill:#63D5D6;}
</style>
<g
   id="Laag_2"
   class="st0"
   transform="translate(-5.6,-5.6)">
	<rect
   class="st1"
   width="439.29999"
   height="82.199997"
   id="rect291"
   x="0"
   y="0" />
</g>
<g
   id="g569"
   transform="translate(-239.15,86.200001)"><g
     id="for_everyone"
     class="st2">
		<path
   class="st3"
   d="m 257.2,62.1 v 2.7 h -6.1 v 11.5 h -3 V 49.7 h 10.6 v 2.7 h -7.6 v 9.7 z"
   id="path294" />
		<path
   class="st3"
   d="m 261.6,56.1 c 0,-4.1 2,-6.7 6.1,-6.7 4.1,0 6.1,2.6 6.1,6.7 v 13.8 c 0,4 -2,6.7 -6.1,6.7 -4.1,0 -6.1,-2.7 -6.1,-6.7 z m 2.9,13.9 c 0,2.4 1,3.8 3.2,3.8 2.2,0 3.2,-1.4 3.2,-3.8 V 55.9 c 0,-2.4 -1,-3.8 -3.2,-3.8 -2.1,0 -3.2,1.4 -3.2,3.8 z"
   id="path296" />
		<path
   class="st3"
   d="m 283.7,49.7 c 4.2,0 5.9,2.1 5.9,6.1 V 58 c 0,2.9 -1,4.8 -3.3,5.5 2.4,0.7 3.3,2.7 3.3,5.5 v 4.1 c 0,1.2 0,2.3 0.5,3.2 h -3 c -0.3,-0.8 -0.5,-1.4 -0.5,-3.2 v -4.2 c 0,-3 -1.4,-4 -3.9,-4 h -2.1 v 11.4 h -3 V 49.7 Z m -0.8,12.5 c 2.4,0 3.8,-0.8 3.8,-3.6 V 56 c 0,-2.4 -0.9,-3.6 -3.1,-3.6 h -2.9 v 9.8 z"
   id="path298" />
		<path
   class="st3"
   d="m 310,61.5 v 2.7 h -6.5 v 9.5 h 8 v 2.7 H 300.6 V 49.7 h 10.9 v 2.7 h -8 v 9.1 z"
   id="path300" />
		<path
   class="st3"
   d="m 317.2,49.7 4.3,23.1 4.3,-23.1 h 2.7 l -5,26.6 h -4.4 l -5,-26.6 z"
   id="path302" />
		<path
   class="st3"
   d="m 341.4,61.5 v 2.7 h -6.5 v 9.5 h 8 v 2.7 H 332 V 49.7 h 10.9 v 2.7 h -8 v 9.1 z"
   id="path304" />
		<path
   class="st3"
   d="m 352.7,49.7 c 4.2,0 5.9,2.1 5.9,6.1 V 58 c 0,2.9 -1,4.8 -3.3,5.5 2.4,0.7 3.3,2.7 3.3,5.5 v 4.1 c 0,1.2 0,2.3 0.5,3.2 h -3 c -0.3,-0.8 -0.5,-1.4 -0.5,-3.2 v -4.2 c 0,-3 -1.4,-4 -3.9,-4 h -2.1 v 11.4 h -3 V 49.7 Z m -0.8,12.5 c 2.4,0 3.8,-0.8 3.8,-3.6 V 56 c 0,-2.4 -0.9,-3.6 -3.1,-3.6 h -2.9 v 9.8 z"
   id="path306" />
		<path
   class="st3"
   d="m 367.6,66.7 -5.6,-17 h 3.1 l 4.1,13.1 4.2,-13.1 h 2.8 l -5.7,17.1 v 9.5 h -2.9 z"
   id="path308" />
		<path
   class="st3"
   d="m 378.3,56.1 c 0,-4.1 2,-6.7 6.1,-6.7 4.1,0 6.1,2.6 6.1,6.7 v 13.8 c 0,4 -2,6.7 -6.1,6.7 -4.1,0 -6.1,-2.7 -6.1,-6.7 z m 2.9,13.9 c 0,2.4 1,3.8 3.2,3.8 2.2,0 3.2,-1.4 3.2,-3.8 V 55.9 c 0,-2.4 -1,-3.8 -3.2,-3.8 -2.1,0 -3.2,1.4 -3.2,3.8 z"
   id="path310" />
		<path
   class="st3"
   d="m 397.5,76.3 h -2.7 V 49.7 h 3.8 l 6.2,19.2 V 49.7 h 2.6 v 26.6 h -3.1 l -6.8,-21.5 z"
   id="path312" />
		<path
   class="st3"
   d="m 421.4,61.5 v 2.7 h -6.5 l 0.3,9.5 h 7.6 v 2.7 H 412 V 49.7 h 10.9 v 2.7 h -8 v 9.1 z"
   id="path314" />
	</g><g
     id="Clean_air_00000103968672579808794540000003664758133772502663_"
     class="st2">
		<path
   class="st3"
   d="m 259.9,12.4 v 2.4 h -2.8 v -2.5 c 0,-2.4 -1,-3.8 -3.1,-3.8 -2.1,0 -3.1,1.4 -3.1,3.8 v 14.1 c 0,2.4 1,3.8 3.1,3.8 2.2,0 3.1,-1.4 3.1,-3.8 v -3.5 h 2.8 v 3.3 c 0,4 -1.9,6.7 -6,6.7 -4.1,0 -6,-2.7 -6,-6.7 V 12.4 c 0,-4 1.9,-6.7 6,-6.7 4.1,0 6,2.6 6,6.7 z"
   id="path317" />
		<path
   class="st3"
   d="M 264.3,32.5 V 5.9 h 3 v 23.9 h 7.6 v 2.7 z"
   id="path319" />
		<path
   class="st3"
   d="m 287.3,17.7 v 2.7 h -6.5 v 9.5 h 8 v 2.7 H 277.9 V 5.9 h 10.9 v 2.7 h -8 v 9.1 z"
   id="path321" />
		<path
   class="st3"
   d="m 295.2,27.2 -1,5.4 h -2.7 L 296.6,6 h 4.3 l 5.1,26.6 h -3 l -1,-5.4 z m 0.4,-2.6 h 5.9 l -3,-15.4 z"
   id="path323" />
		<path
   class="st3"
   d="m 312,32.5 h -2.7 V 5.9 h 3.8 l 6.2,19.2 V 5.9 h 2.6 v 26.6 h -3.1 L 312,11 Z"
   id="path325" />
		<path
   class="st3"
   d="m 335.4,27.2 -1,5.4 h -2.7 L 336.8,6 h 4.3 l 5.1,26.6 h -3 l -1,-5.4 z m 0.4,-2.6 h 5.9 l -3,-15.4 z"
   id="path327" />
		<path
   class="st3"
   d="m 352.2,5.9 v 26.6 h -3 V 5.9 Z"
   id="path329" />
		<path
   class="st3"
   d="m 362.3,5.9 c 4.2,0 5.9,2.1 5.9,6.1 v 2.2 c 0,2.9 -1,4.7 -3.3,5.5 2.4,0.7 3.3,2.7 3.3,5.5 v 4.1 c 0,1.2 0,2.3 0.5,3.2 h -3 c -0.3,-0.8 -0.5,-1.4 -0.5,-3.2 v -4.2 c 0,-3 -1.4,-4 -3.9,-4 h -2.1 v 11.4 h -3 V 5.9 Z m -0.8,12.6 c 2.4,0 3.8,-0.8 3.8,-3.6 v -2.5 c 0,-2.4 -0.9,-3.6 -3.1,-3.6 h -2.9 v 9.8 h 2.2 z"
   id="path331" />
	</g></g><g
   id="woordbeeld"
   transform="translate(-4.6,-4.5999985)">
		<polygon
   id="E"
   class="st5"
   points="196.1,75.8 196.1,65.9 177,65.9 177,44.7 192.2,44.7 192.2,34.8 177,34.8 177,16.6 196.1,16.6 196.1,6.7 166,6.7 166,75.8 " />
		<path
   id="R"
   class="st3"
   d="m 149.4,29 c 0,5.6 -2.4,7.3 -6.5,7.3 H 139 V 16.6 h 4.9 c 3.8,0 5.5,2.1 5.5,7.1 z m 12,46.8 c -1.1,-2.5 -1.2,-5.1 -1.2,-8.4 V 55.3 c 0,-7.8 -1.8,-13 -7.2,-14.6 v -0.2 c 4.8,-1.9 7.1,-6.5 7.1,-13.6 v -4.2 c 0,-10.6 -4.8,-15.9 -16,-15.9 h -16 V 75.9 H 139 V 46.2 h 3.7 c 4.9,0 6.8,2 6.8,8.5 v 12.7 c 0,5.7 0.4,6.7 1,8.5 z" />
		<rect
   id="I"
   x="109.3"
   y="6.6999998"
   class="st3"
   width="10.8"
   height="69.099998" />
		<polygon
   id="L"
   class="st6"
   points="73,75.8 73,65.9 55.3,65.9 55.3,6.7 44.5,6.7 44.5,75.8 " />
		<path
   id="A"
   class="st3"
   d="M 85.1,18 90,52.8 H 80.3 Z M 78.3,6.7 67.1,75.7 h 10 L 79,62.2 h 12.5 l 1.9,13.5 h 10.8 L 93,6.7 Z" />
		<path
   id="C"
   class="st6"
   d="m 21.6,76.5 c 10.4,0 15.9,-6.3 15.9,-17 V 50.2 H 27.3 v 10 c 0,4.5 -2.1,6.3 -5.4,6.3 -3.3,0 -5.4,-1.8 -5.4,-6.3 V 21.9 c 0,-4.5 2.1,-6.4 5.4,-6.4 3.3,0 5.4,1.9 5.4,6.4 v 8 H 37.5 V 22.6 C 37.5,12 32,5.6 21.6,5.6 c -10.4,0 -16,6.3 -16,17 v 37 c 0.1,10.7 5.5,16.9 16,16.9" />
	</g>
</svg>
