<svg width="1800" height="1800" xmlns="http://www.w3.org/2000/svg" xml:space="preserve" version="1.1">

 <g>
  <title>Layer 1</title>
  <g id="svg_1">
   <circle id="svg_2" fill="#05AFC6" r="86.3999" cy="979.91674" cx="236.39996" class="st0"/>
   <circle id="svg_3" fill="#05AFC6" r="25.59998" cy="218.51674" cx="960.79996" class="st0"/>
   <circle id="svg_4" fill="#AFE8F4" r="136.79999" cy="192.51674" cx="1232.69996" class="st1"/>
   <circle id="svg_5" fill="#C3F5FE" r="74.40002" cy="1395.21674" cx="960.79996" class="st2"/>
   <circle id="svg_6" fill="#A7F0FF" r="50.39999" cy="466.51674" cx="370.29996" class="st3"/>
   <circle id="svg_7" fill="#05AFC6" r="21.59998" cy="817.31674" cx="1628.39996" class="st0"/>
   <circle id="svg_8" fill="#83ECEE" r="51.20001" cy="572.71674" cx="1282.59996" class="st4"/>
   <g id="svg_9">
    <path id="svg_10" d="m785.09996,700.61674l71.3,0c-2.4,39.2 17.8,61.6 57.8,61.6c35.7,0 57.4,-17.2 57.4,-45.4c0,-29.1 -21.2,-43 -61.7,-44.4l-30.8,-1.4l0,-49.7l27,-1c33.7,-1.4 54.5,-15.8 54.5,-41.1c0,-21 -16.9,-34.9 -44.8,-34.9c-32.3,0 -49.6,18.1 -51.1,48.3l-71.3,0c3.9,-69.3 48.2,-111.3 123.4,-111.3c71.8,0 114.7,37.7 114.7,97.5c0,18 -7.6,34.1 -21.4,46.5c-10.6,9.6 -22.5,12.1 -30.2,13.4c-1.8,0.3 -2.8,1.6 -2.7,3.5l0,0c0,1.4 1.3,2.6 3.1,2.7c10.8,0.8 22.5,4.1 32.2,11.2c19.8,14.5 30.1,36.2 30.1,61.8c0,67.4 -48.2,108.5 -127.7,108.5c-87,-0.2 -134.2,-47.5 -129.8,-125.8"/>
    <path id="svg_11" d="m636.89996,572.61674c0,0 0,0 0,0l0,0c-20.8,0 -38.6,6.5 -51.6,15.8c-10.8,7.8 -18.8,19.9 -22.4,25c-1,1.3 -3.1,0.8 -3,-1l2.7,-27.1l0,-7.1l-72.3,0l0,328.3l72.3,0l0,-88.4l-2.2,-27.6c-0.2,-1.5 1.8,-2.2 2.8,-0.9c4,5.7 10.3,14.3 19.5,21.4c0.8,0.6 1.6,1.2 2.5,1.8c0.3,0.2 0.6,0.4 0.9,0.6c0.6,0.4 1.3,0.8 1.9,1.2c0,0 0,0 0.1,0c11.2,6.8 25.3,11 44.5,11.5c1.3,0 2.7,0.1 4,0.1c0,0 0.1,0 0.1,0l0,0c0,0 0,0 0,0c68,0 109.9,-48.7 109.4,-127.1c0.7,-77.7 -41.2,-126.5 -109.2,-126.5zm-19.2,197.4c-33.3,0 -54.9,-27.7 -54.9,-70.7c0,-43 21.7,-70.7 54.9,-70.7c34.7,0 55.9,26.8 55.9,70.7c0,43.9 -21.2,70.7 -55.9,70.7z"/>
    <path id="svg_12" d="m1298.29996,924.21674c-40.2,0 -79.5,29.9 -84.3,74.5l0,138.2l-31.1,0l0,-237.4l31.1,0l0,16.2c0,0 -0.6,30.3 -1,36.6c-0.1,1.9 2.2,2.3 2.9,0.7c1.9,-4.6 5.3,-10.5 10.1,-17.8c14.6,-22.1 45,-40.4 77.1,-40.4c53.2,0 86.2,37.5 86.2,97.8l0,144.3l-31.1,0l0,-146.2c-0.1,-40.9 -20.2,-66.5 -59.9,-66.5"/>
    <path id="svg_13" d="m910.89996,1017.31674c0,-77.4 44.5,-123.4 114.5,-123.4c69.5,0 110.6,47.5 110.6,123.4l0,12.8l-192.5,0c3.4,53.2 34,83.1 82.9,83.1c35.4,0 60.3,-17.1 74.2,-47.5l31.1,7.1c-17.2,42.7 -55.6,67.9 -105.4,67.9c-72.3,0 -115.4,-44.6 -115.4,-123.4m193.9,-11.9c-2.9,-52.7 -32.1,-84.5 -79.5,-84.5c-47.9,0 -77.6,31.3 -81.9,84.5l161.4,0z"/>
    <path id="svg_14" d="m1468.69996,1078.01674l0,-149.6l-41.2,0l0,-29l22,0c12,0 19.1,-7.1 19.1,-19l0,-42.7l31.1,0l0,61.7l58.9,0l0,29l-58.9,0l0,146.2c0,20.9 11.5,32.8 31.1,32.8l27.3,0l0,29.4l-32.1,0c-36.2,0.1 -57.3,-21.3 -57.3,-58.8"/>
    <rect id="svg_15" height="237.4" width="31.1" y="899.51674" x="1612.79996"/>
    <path id="svg_16" d="m856.29996,899.51674l-61,176.1c-0.2,0.6 -0.4,1.3 -0.6,2l-5.1,18.9c-0.3,1.3 -1,2.4 -2.3,2.4c0,0 0,0 0,0c-1.4,0 -2,-1.1 -2.3,-2.4l-5.1,-18.9c-0.2,-0.7 -0.3,-1.3 -0.6,-2l-61,-176.1l-34.5,0l86.2,237.4l34.5,0l86.2,-237.4l-34.4,0z"/>
   </g>
  </g>
 </g>
</svg>